# WaveFront *.obj file (generated by Autodesk ATF)

mtllib 47d5996d-6193-48b8-9056-9f3bdd1be24a.mtl

g Body1

v 0.000000 -52.000000 -5.000000
v 0.000000 52.000000 -5.000000
v 1.600000 52.000000 -5.000000
v 1.600000 -52.000000 -5.000000
v 0.000000 -52.000000 5.000000
v 0.000000 -53.294095 4.829629
v 0.000000 -54.500000 4.330127
v 0.000000 -55.535534 3.535534
v 0.000000 -56.330127 2.500000
v 0.000000 -56.829629 1.294095
v 0.000000 -57.000000 0.000000
v 0.000000 -56.829629 -1.294095
v 0.000000 -56.330127 -2.500000
v 0.000000 -55.535534 -3.535534
v 0.000000 -54.500000 -4.330127
v 0.000000 -53.294095 -4.829629
v 1.600000 -53.294095 -4.829629
v 1.600000 -54.500000 -4.330127
v 1.600000 -55.535534 -3.535534
v 1.600000 -56.330127 -2.500000
v 1.600000 -56.829629 -1.294095
v 1.600000 -57.000000 0.000000
v 1.600000 -56.829629 1.294095
v 1.600000 -56.330127 2.500000
v 1.600000 -55.535534 3.535534
v 1.600000 -54.500000 4.330127
v 1.600000 -53.294095 4.829629
v 1.600000 -52.000000 5.000000
v 0.000000 52.000000 5.000000
v 1.600000 52.000000 5.000000
v 0.000000 53.294095 -4.829629
v 0.000000 54.500000 -4.330127
v 0.000000 55.535534 -3.535534
v 0.000000 56.330127 -2.500000
v 0.000000 56.829629 -1.294095
v 0.000000 57.000000 0.000000
v 0.000000 56.829629 1.294095
v 0.000000 56.330127 2.500000
v 0.000000 55.535534 3.535534
v 0.000000 54.500000 4.330127
v 0.000000 53.294095 4.829629
v 1.600000 53.294095 4.829629
v 1.600000 54.500000 4.330127
v 1.600000 55.535534 3.535534
v 1.600000 56.330127 2.500000
v 1.600000 56.829629 1.294095
v 1.600000 57.000000 0.000000
v 1.600000 56.829629 -1.294095
v 1.600000 56.330127 -2.500000
v 1.600000 55.535534 -3.535534
v 1.600000 54.500000 -4.330127
v 1.600000 53.294095 -4.829629
vt 0.000000 0.000000 0.000000
vt 10.400000 0.000000 0.000000
vt 0.000000 0.160000 0.000000
vt 10.400000 0.160000 0.000000
vt -0.160000 0.785398 0.000000
vt -0.000000 0.785398 0.000000
vt -0.160000 0.916298 0.000000
vt -0.000000 0.916298 0.000000
vt -0.160000 1.047197 0.000000
vt -0.000000 1.047197 0.000000
vt -0.160000 1.178097 0.000000
vt -0.000000 1.178097 0.000000
vt -0.160000 1.308997 0.000000
vt -0.000000 1.308997 0.000000
vt -0.160000 1.439897 0.000000
vt -0.000000 1.439897 0.000000
vt -0.160000 1.570796 0.000000
vt -0.000000 1.570796 0.000000
vt -0.160000 1.701696 0.000000
vt -0.000000 1.701696 0.000000
vt -0.160000 1.832596 0.000000
vt -0.000000 1.832596 0.000000
vt -0.160000 1.963495 0.000000
vt -0.000000 1.963495 0.000000
vt -0.160000 2.094395 0.000000
vt -0.000000 2.094395 0.000000
vt -0.160000 2.225295 0.000000
vt -0.000000 2.225295 0.000000
vt -0.160000 2.356194 0.000000
vt -0.000000 2.356194 0.000000
vt 0.000000 0.000000 0.000000
vt 10.400000 0.000000 0.000000
vt 0.000000 0.160000 0.000000
vt 10.400000 0.160000 0.000000
vt -0.160000 -0.785398 0.000000
vt -0.000000 -0.785398 0.000000
vt -0.160000 -0.654498 0.000000
vt -0.000000 -0.654498 0.000000
vt -0.160000 -0.523599 0.000000
vt -0.000000 -0.523599 0.000000
vt -0.160000 -0.392699 0.000000
vt -0.000000 -0.392699 0.000000
vt -0.160000 -0.261799 0.000000
vt -0.000000 -0.261799 0.000000
vt -0.160000 -0.130900 0.000000
vt -0.000000 -0.130900 0.000000
vt -0.160000 0.000000 0.000000
vt -0.000000 0.000000 0.000000
vt -0.160000 0.130900 0.000000
vt -0.000000 0.130900 0.000000
vt -0.160000 0.261799 0.000000
vt -0.000000 0.261799 0.000000
vt -0.160000 0.392699 0.000000
vt -0.000000 0.392699 0.000000
vt -0.160000 0.523599 0.000000
vt -0.000000 0.523599 0.000000
vt -0.160000 0.654498 0.000000
vt -0.000000 0.654498 0.000000
vt -0.160000 0.785398 0.000000
vt -0.000000 0.785398 0.000000
vt 5.329410 -0.482963 0.000000
vt 5.450000 -0.433013 0.000000
vt 5.200000 -0.500000 0.000000
vt -5.553553 -0.353553 0.000000
vt -5.450000 -0.433013 0.000000
vt 5.553553 -0.353553 0.000000
vt -5.633013 -0.250000 0.000000
vt 5.633013 -0.250000 0.000000
vt -5.682963 -0.129410 0.000000
vt 5.682963 -0.129410 0.000000
vt -5.700000 0.000000 0.000000
vt 5.700000 0.000000 0.000000
vt -5.682963 0.129410 0.000000
vt 5.682963 0.129410 0.000000
vt -5.633013 0.250000 0.000000
vt 5.633013 0.250000 0.000000
vt -5.553553 0.353553 0.000000
vt 5.553553 0.353553 0.000000
vt -5.450000 0.433013 0.000000
vt -5.200000 0.500000 0.000000
vt -5.329410 0.482963 0.000000
vt 5.450000 0.433013 0.000000
vt 5.200000 0.500000 0.000000
vt 5.329410 0.482963 0.000000
vt -5.329410 -0.482963 0.000000
vt -5.200000 -0.500000 0.000000
vt -5.329410 0.482963 0.000000
vt -5.450000 0.433013 0.000000
vt -5.200000 0.500000 0.000000
vt 5.553553 0.353553 0.000000
vt 5.450000 0.433013 0.000000
vt -5.553553 0.353553 0.000000
vt 5.633013 0.250000 0.000000
vt -5.633013 0.250000 0.000000
vt 5.682963 0.129410 0.000000
vt -5.682963 0.129410 0.000000
vt 5.700000 0.000000 0.000000
vt -5.700000 0.000000 0.000000
vt 5.682963 -0.129410 0.000000
vt -5.682963 -0.129410 0.000000
vt 5.633013 -0.250000 0.000000
vt -5.633013 -0.250000 0.000000
vt 5.553553 -0.353553 0.000000
vt -5.553553 -0.353553 0.000000
vt 5.450000 -0.433013 0.000000
vt 5.200000 -0.500000 0.000000
vt 5.329410 -0.482963 0.000000
vt -5.450000 -0.433013 0.000000
vt -5.200000 -0.500000 0.000000
vt -5.329410 -0.482963 0.000000
vt 5.329410 0.482963 0.000000
vt 5.200000 0.500000 0.000000
vn 0.000000 0.000000 -0.100000
vn 0.000000 0.000000 -0.100000
vn 0.000000 0.000000 -0.100000
vn 0.000000 0.000000 -0.100000
vn 0.000000 0.000000 0.100000
vn 0.000000 0.000000 0.100000
vn 0.000000 -0.025882 0.096593
vn 0.000000 -0.025882 0.096593
vn 0.000000 -0.050000 0.086603
vn 0.000000 -0.050000 0.086603
vn 0.000000 -0.070711 0.070711
vn 0.000000 -0.070711 0.070711
vn 0.000000 -0.086603 0.050000
vn 0.000000 -0.086603 0.050000
vn 0.000000 -0.096593 0.025882
vn 0.000000 -0.096593 0.025882
vn 0.000000 -0.100000 0.000000
vn 0.000000 -0.100000 0.000000
vn 0.000000 -0.096593 -0.025882
vn 0.000000 -0.096593 -0.025882
vn 0.000000 -0.086603 -0.050000
vn 0.000000 -0.086603 -0.050000
vn 0.000000 -0.070711 -0.070711
vn 0.000000 -0.070711 -0.070711
vn 0.000000 -0.050000 -0.086603
vn 0.000000 -0.050000 -0.086603
vn 0.000000 -0.025882 -0.096593
vn 0.000000 -0.025882 -0.096593
vn 0.000000 0.000000 0.100000
vn 0.000000 0.000000 0.100000
vn -0.000000 0.025882 -0.096593
vn -0.000000 0.025882 -0.096593
vn -0.000000 0.050000 -0.086603
vn -0.000000 0.050000 -0.086603
vn -0.000000 0.070711 -0.070711
vn -0.000000 0.070711 -0.070711
vn -0.000000 0.086603 -0.050000
vn -0.000000 0.086603 -0.050000
vn -0.000000 0.096593 -0.025882
vn -0.000000 0.096593 -0.025882
vn -0.000000 0.100000 -0.000000
vn -0.000000 0.100000 -0.000000
vn 0.000000 0.096593 0.025882
vn 0.000000 0.096593 0.025882
vn 0.000000 0.086603 0.050000
vn 0.000000 0.086603 0.050000
vn 0.000000 0.070711 0.070711
vn 0.000000 0.070711 0.070711
vn 0.000000 0.050000 0.086603
vn 0.000000 0.050000 0.086603
vn 0.000000 0.025882 0.096593
vn 0.000000 0.025882 0.096593
vn 0.100000 0.000000 0.000000
vn 0.100000 0.000000 0.000000
vn 0.100000 0.000000 0.000000
vn 0.100000 0.000000 0.000000
vn 0.100000 0.000000 0.000000
vn 0.100000 0.000000 0.000000
vn 0.100000 0.000000 0.000000
vn 0.100000 0.000000 0.000000
vn 0.100000 0.000000 0.000000
vn 0.100000 0.000000 0.000000
vn 0.100000 0.000000 0.000000
vn 0.100000 0.000000 0.000000
vn 0.100000 0.000000 0.000000
vn 0.100000 0.000000 0.000000
vn 0.100000 0.000000 0.000000
vn 0.100000 0.000000 0.000000
vn 0.100000 0.000000 0.000000
vn 0.100000 0.000000 0.000000
vn 0.100000 0.000000 0.000000
vn 0.100000 0.000000 0.000000
vn 0.100000 0.000000 0.000000
vn 0.100000 0.000000 0.000000
vn 0.100000 0.000000 0.000000
vn 0.100000 0.000000 0.000000
vn 0.100000 0.000000 0.000000
vn 0.100000 0.000000 0.000000
vn -0.100000 0.000000 0.000000
vn -0.100000 0.000000 0.000000
vn -0.100000 0.000000 0.000000
vn -0.100000 0.000000 0.000000
vn -0.100000 0.000000 0.000000
vn -0.100000 0.000000 0.000000
vn -0.100000 0.000000 0.000000
vn -0.100000 0.000000 0.000000
vn -0.100000 0.000000 0.000000
vn -0.100000 0.000000 0.000000
vn -0.100000 0.000000 0.000000
vn -0.100000 0.000000 0.000000
vn -0.100000 0.000000 0.000000
vn -0.100000 0.000000 0.000000
vn -0.100000 0.000000 0.000000
vn -0.100000 0.000000 0.000000
vn -0.100000 0.000000 0.000000
vn -0.100000 0.000000 0.000000
vn -0.100000 0.000000 0.000000
vn -0.100000 0.000000 0.000000
vn -0.100000 0.000000 0.000000
vn -0.100000 0.000000 0.000000
vn -0.100000 0.000000 0.000000
vn -0.100000 0.000000 0.000000
vn -0.100000 0.000000 0.000000
vn -0.100000 0.000000 0.000000
usemtl Pine
f 1/1/1 2/2/2 4/3/3
f 4/3/3 2/2/2 3/4/4
f 28/5/5 5/6/6 27/7/7
f 27/7/7 5/6/6 6/8/8
f 27/7/7 6/8/8 26/9/9
f 26/9/9 6/8/8 7/10/10
f 26/9/9 7/10/10 25/11/11
f 25/11/11 7/10/10 8/12/12
f 25/11/11 8/12/12 24/13/13
f 24/13/13 8/12/12 9/14/14
f 24/13/13 9/14/14 23/15/15
f 23/15/15 9/14/14 10/16/16
f 23/15/15 10/16/16 22/17/17
f 22/17/17 10/16/16 11/18/18
f 22/17/17 11/18/18 21/19/19
f 21/19/19 11/18/18 12/20/20
f 21/19/19 12/20/20 20/21/21
f 20/21/21 12/20/20 13/22/22
f 20/21/21 13/22/22 19/23/23
f 19/23/23 13/22/22 14/24/24
f 19/23/23 14/24/24 18/25/25
f 18/25/25 14/24/24 15/26/26
f 18/25/25 15/26/26 17/27/27
f 17/27/27 15/26/26 16/28/28
f 17/27/27 16/28/28 4/29/3
f 4/29/3 16/28/28 1/30/1
f 29/31/29 5/32/6 30/33/30
f 30/33/30 5/32/6 28/34/5
f 3/35/4 2/36/2 52/37/31
f 52/37/31 2/36/2 31/38/32
f 52/37/31 31/38/32 51/39/33
f 51/39/33 31/38/32 32/40/34
f 51/39/33 32/40/34 50/41/35
f 50/41/35 32/40/34 33/42/36
f 50/41/35 33/42/36 49/43/37
f 49/43/37 33/42/36 34/44/38
f 49/43/37 34/44/38 48/45/39
f 48/45/39 34/44/38 35/46/40
f 48/45/39 35/46/40 47/47/41
f 47/47/41 35/46/40 36/48/42
f 47/47/41 36/48/42 46/49/43
f 46/49/43 36/48/42 37/50/44
f 46/49/43 37/50/44 45/51/45
f 45/51/45 37/50/44 38/52/46
f 45/51/45 38/52/46 44/53/47
f 44/53/47 38/52/46 39/54/48
f 44/53/47 39/54/48 43/55/49
f 43/55/49 39/54/48 40/56/50
f 43/55/49 40/56/50 42/57/51
f 42/57/51 40/56/50 41/58/52
f 42/57/51 41/58/52 30/59/30
f 30/59/30 41/58/52 29/60/29
f 52/61/53 51/62/54 3/63/55
f 3/63/55 51/62/54 19/64/56
f 3/63/55 19/64/56 18/65/57
f 51/62/54 50/66/58 19/64/56
f 19/64/56 50/66/58 20/67/59
f 20/67/59 50/66/58 49/68/60
f 20/67/59 49/68/60 21/69/61
f 21/69/61 49/68/60 48/70/62
f 21/69/61 48/70/62 22/71/63
f 22/71/63 48/70/62 47/72/64
f 22/71/63 47/72/64 23/73/65
f 23/73/65 47/72/64 46/74/66
f 23/73/65 46/74/66 24/75/67
f 24/75/67 46/74/66 45/76/68
f 24/75/67 45/76/68 25/77/69
f 25/77/69 45/76/68 44/78/70
f 25/77/69 44/78/70 26/79/71
f 26/79/71 44/78/70 28/80/72
f 26/79/71 28/80/72 27/81/73
f 44/78/70 43/82/74 28/80/72
f 28/80/72 43/82/74 30/83/75
f 30/83/75 43/82/74 42/84/76
f 17/85/77 4/86/78 18/65/57
f 18/65/57 4/86/78 3/63/55
f 41/87/79 40/88/80 29/89/81
f 29/89/81 40/88/80 8/90/82
f 29/89/81 8/90/82 7/91/83
f 40/88/80 39/92/84 8/90/82
f 8/90/82 39/92/84 9/93/85
f 9/93/85 39/92/84 38/94/86
f 9/93/85 38/94/86 10/95/87
f 10/95/87 38/94/86 37/96/88
f 10/95/87 37/96/88 11/97/89
f 11/97/89 37/96/88 36/98/90
f 11/97/89 36/98/90 12/99/91
f 12/99/91 36/98/90 35/100/92
f 12/99/91 35/100/92 13/101/93
f 13/101/93 35/100/92 34/102/94
f 13/101/93 34/102/94 14/103/95
f 14/103/95 34/102/94 33/104/96
f 14/103/95 33/104/96 15/105/97
f 15/105/97 33/104/96 1/106/98
f 15/105/97 1/106/98 16/107/99
f 33/104/96 32/108/100 1/106/98
f 1/106/98 32/108/100 2/109/101
f 2/109/101 32/108/100 31/110/102
f 6/111/103 5/112/104 7/91/83
f 7/91/83 5/112/104 29/89/81
# 52 vertices
# 112 texture params
# 104 normals
# 100 facets

# 1 groups
